<?xml version="1.0" encoding="UTF-8" standalone="no"?>
<!-- Generator: Adobe Illustrator 28.0.0, SVG Export Plug-In . SVG Version: 6.00 Build 0)  -->

<svg
   version="1.1"
   id="Layer_1"
   x="0px"
   y="0px"
   width="196.3px"
   height="69.8px"
   viewBox="0 0 196.3 69.8"
   style="enable-background:new 0 0 196.3 69.8;"
   xml:space="preserve"
   sodipodi:docname="sally.svg"
   inkscape:version="1.4.3 (0d15f75, 2025-12-25)"
   xmlns:inkscape="http://www.inkscape.org/namespaces/inkscape"
   xmlns:sodipodi="http://sodipodi.sourceforge.net/DTD/sodipodi-0.dtd"
   xmlns="http://www.w3.org/2000/svg"
   xmlns:svg="http://www.w3.org/2000/svg"><defs
   id="defs14"><rect
     x="10.5"
     y="10.5"
     width="175.5"
     height="47"
     id="rect14" /></defs><sodipodi:namedview
   id="namedview14"
   pagecolor="#ffffff"
   bordercolor="#000000"
   borderopacity="0.25"
   inkscape:showpageshadow="2"
   inkscape:pageopacity="0.0"
   inkscape:pagecheckerboard="0"
   inkscape:deskcolor="#d1d1d1"
   inkscape:zoom="2"
   inkscape:cx="45.25"
   inkscape:cy="35"
   inkscape:window-width="1512"
   inkscape:window-height="896"
   inkscape:window-x="-8"
   inkscape:window-y="-8"
   inkscape:window-maximized="1"
   inkscape:current-layer="Layer_1" />
<style
   type="text/css"
   id="style1">
	.st0{fill:#231F20;}
</style>


<path
   d="m 29.856789,30.812914 q 0,1.585936 -0.747395,3.135414 -0.729166,1.549477 -2.059894,2.624997 -1.458332,1.166666 -3.408851,1.822915 -1.93229,0.65625 -4.666663,0.65625 -2.934893,0 -5.286454,-0.546875 -2.333331,-0.546874 -4.757808,-1.622394 v -4.52083 h 0.255208 q 2.059894,1.713541 4.757809,2.643227 2.697914,0.929687 5.067704,0.929687 3.354163,0 5.213537,-1.257811 1.877602,-1.257812 1.877602,-3.354164 0,-1.804686 -0.893228,-2.661456 -0.874999,-0.85677 -2.679685,-1.330728 -1.367187,-0.364583 -2.971352,-0.601562 -1.585936,-0.236979 -3.372393,-0.601562 -3.609372,-0.765625 -5.35937,-2.606769 -1.73177,-1.859373 -1.73177,-4.830725 0,-3.408851 2.880206,-5.57812 2.880206,-2.187498 7.30989,-2.187498 2.861977,0 5.249995,0.546874 2.388019,0.546875 4.229163,1.348957 v 4.265622 h -0.255208 q -1.549478,-1.312499 -4.08333,-2.169269 -2.515622,-0.874999 -5.158849,-0.874999 -2.898435,0 -4.666663,1.203124 -1.749999,1.203123 -1.749999,3.098955 0,1.695311 0.875,2.661456 0.874999,0.966145 3.080726,1.476562 1.166666,0.255208 3.317706,0.619791 2.15104,0.364583 3.64583,0.747395 3.026039,0.802082 4.557288,2.424477 1.531248,1.622394 1.531248,4.539059 z m 21.346336,7.747389 h -3.408851 v -2.169269 q -0.455729,0.309895 -1.239583,0.874999 -0.765624,0.546875 -1.49479,0.874999 -0.85677,0.419271 -1.968748,0.692708 -1.111979,0.291667 -2.606769,0.291667 -2.752602,0 -4.666663,-1.822916 -1.91406,-1.822915 -1.91406,-4.648433 0,-2.315102 0.984374,-3.736976 1.002603,-1.440103 2.843747,-2.260415 1.859374,-0.820312 4.466142,-1.111978 2.606769,-0.291667 5.59635,-0.4375 v -0.528645 q 0,-1.166666 -0.419271,-1.93229 -0.401041,-0.765624 -1.166665,-1.203124 -0.729167,-0.419271 -1.749999,-0.565104 -1.020832,-0.145833 -2.132811,-0.145833 -1.348957,0 -3.00781,0.364583 -1.658852,0.346354 -3.42708,1.020832 h -0.182292 v -3.481767 q 1.002604,-0.273438 2.898436,-0.601562 1.895831,-0.328125 3.736975,-0.328125 2.15104,0 3.736976,0.364583 1.604166,0.346354 2.770831,1.203124 1.148437,0.838541 1.749999,2.169269 0.601562,1.330728 0.601562,3.299476 z M 47.794274,33.547286 V 27.87802 q -1.567707,0.09115 -3.700518,0.273438 -2.114582,0.182291 -3.354164,0.528645 -1.476561,0.41927 -2.388019,1.312499 -0.911457,0.874999 -0.911457,2.424477 0,1.749998 1.057291,2.643227 1.05729,0.874999 3.226559,0.874999 1.804686,0 3.299477,-0.692708 1.49479,-0.710937 2.770831,-1.695311 z M 61.26561,38.560303 H 57.83853 V 10.195744 h 3.42708 z m 10.24479,0 H 68.08332 V 10.195744 H 71.5104 Z M 95.90101,18.198341 84.0156,46.070713 H 80.35154 L 84.1432,37.575929 76.03123,18.198341 h 3.71875 l 6.2526,15.093737 6.30728,-15.093737 z"
   id="text14"
   style="font-size:37.3333px;text-align:center;text-anchor:middle;white-space:pre"
   aria-label="Sally" /></svg>
